<svg xmlns="http://www.w3.org/2000/svg" width="10" height="16" viewBox="0 0 10 16"><g><g><path fill="#fff" d="M9.988 10.782c0 2.755-2.19 5.187-4.946 5.207-2.751.02-5.03-2.448-5.03-5.207A4.99 4.99 0 0 1 4.03 5.887a.518.518 0 0 1 .09-.25H2.534a.523.523 0 0 1-.522-.522v-.337c0-.12.04-.229.107-.316L.27.684-.001 0h10L7.93 4.538c.038.07.059.152.059.24v.338a.523.523 0 0 1-.523.521H5.881c.05.072.082.158.09.25a4.991 4.991 0 0 1 4.017 4.895zM6 1l-.078.212 1.466 2.993L9 1zm.856 3.555l-.62-1.266L5 1H1l1.868 3.556zM9 11c-.013-1.186-.22-2.22-1-3-.79-.79-1.796-1-3-1-1.205 0-2.21.21-3 1-.79.789-1 1.796-1 3s.13 2.073.92 2.863C2.709 14.652 3.796 15 5 15c1.205 0 2.292-.348 3.08-1.137.79-.79.92-1.66.92-2.863z"/></g></g></svg>