<svg xmlns="http://www.w3.org/2000/svg" width="12" height="15" viewBox="0 0 12 15"><g><g><path fill="#fff" d="M10.898 1.67a.484.484 0 0 1 .484.485v.447a.484.484 0 0 1-.484.485h-.379l-.68 5.66-.67 5.567a.712.712 0 0 1-.697.617H2.917a.713.713 0 0 1-.697-.618L1.654 9.61l-.044-.364-.06-.497-.097-.81-.312-2.594-.042-.347-.23-1.91H.49a.485.485 0 0 1-.484-.485v-.448c0-.266.217-.482.484-.483h.253l.15-.152.015-.016.705-.718.009-.005C1.833.598 1.721.009 2 0h7c.292.01.585.61.797.808l.008.008.18.184H2l-.016.293v-.001l.037-.037c.037-.054.263-.152.35-.156h6.64c.082-.002.32.1.355.155l.006.006.005.004.613-.26.495.505.006.006.153.156zm-.908-.666L9.985 1H10zM2.23 9.207h2.688a1.933 1.933 0 0 1 .117-3.59H1.798l.146 1.22.222 1.836.05.425zm2.148-1.774a1.317 1.317 0 0 0 2.633.001 1.317 1.317 0 0 0-2.633 0zm4.706 2.394h-6.78l.532 4.415c0 .006.009.029.029.046.02.018.128-.286.135-.288h5c.007 0 .473.311.476.311.01 0 .03-.008.048-.023.02-.017.03-.04.03-.047l.123.013-.123-.015zm.508-4.21H6.354a1.934 1.934 0 0 1 .117 3.59h2.688l.064-.535.117-.965zM10 3H1l.723 1.997h7.943zm.763-.71H.626v.177h10.137z"/></g></g></svg>