<svg xmlns="http://www.w3.org/2000/svg" width="15" height="16" viewBox="0 0 15 16"><g><g><path fill="#fff" d="M14.668 6.185v.218L15 6v9c-.002.354-.647.999-1 1H1c-.355-.001-1-.646-1-1V6l.43.393v-.195-.04l.003-.016.006-.052.001-.003a.64.64 0 0 1 .632-.53h.165L1 1h9L9.717.722 9.78.72h.161l.172.162 3.64 3.641.107.106v.926h.165c.33 0 .597.248.636.566 0 .004.005.023.006.056zm-.808-.025v.14l.17-.14h-.005zM12 4l-2-2v2zm1.652 3.255l-3.334 2.749-.632.523 4.377 3.517V6.916zm-.396-.457v-1.74L9 5V2H2l-.158 4.773 4.41 3.636.854.706.17.139a.461.461 0 0 0 .29.095.463.463 0 0 0 .29-.095l1.093-.902.01-.008.084-.07h.002zM1.033 6.89v7.15l4.381-3.538-1.635-1.349-1.937-1.598v.001zm0 7.926c.002.018.022.036.04.036h12.951c.019 0 .037-.017.038-.035l-4.851-3.9-.97.802c-.196.16-.438.232-.675.233a1.064 1.064 0 0 1-.673-.233l-1.002-.826zm.204-8.541V6.16h-.14z"/></g></g></svg>