<svg xmlns="http://www.w3.org/2000/svg" width="17" height="13" viewBox="0 0 17 13"><g><g><path fill="#fff" d="M15.972 2.468v10.34c-.001.13.07.18.111.195A.814.814 0 0 0 16 13H1c-.268-.001-1-.732-1-1V4c0-.238.483-.72.707-.763V.595C.708.333.738 0 1 0h6c.2.008.362.212.5.361l.764.92.017.02H15.1a.478.478 0 0 1 .476.476v.213c.225.042.395.24.396.478zm.111 10.535c.046.005.032.012 0 0zM7.773 1.639L7.035.753A.584.584 0 0 1 7.017.74C7.003.734 7.007 1 7 1H1l.315.64zM1.876 3.23h6.126l.023-.028.249-.298.546-.657H1.876zm-.958.607L1 12h14V3H9l.363-.388-.026.009c-.017.007-.034.018-.04.022l-.808.953-.111.129s-.07.065-.097.078c-.042.022-.172.033-.172.033H.918z"/></g></g></svg>