<svg xmlns="http://www.w3.org/2000/svg" width="50" height="43" viewBox="0 0 50 43"><g><g><path fill="#1f2021" d="M7.02 42.308c-3.442-.006-6.247-2.81-6.252-6.252v-21.32c.005-3.439 2.81-6.245 6.252-6.25h4.48l.243-.25 4.995-5.134C18.097 1.77 20.228.87 22.152.823h6.498c1.903.048 4.034.947 5.408 2.293l4.977 5.12.244.25h4.483c3.44.005 6.244 2.811 6.25 6.251v21.32c-.006 3.44-2.81 6.245-6.252 6.251zM2.384 14.735v21.322a4.651 4.651 0 0 0 4.632 4.635h36.745a4.65 4.65 0 0 0 4.633-4.634V14.736a4.65 4.65 0 0 0-4.633-4.634h-5.703l-2.973-3.02-2.656-2.7c-.713-.815-2.776-1.716-3.98-1.716l-5.98.003h-.004c-1.31 0-3.331.883-4.091 1.749L15.75 7.082l-2.973 3.02h-5.76a4.65 4.65 0 0 0-4.632 4.633zm11.333 10.799c0-6.436 5.235-11.673 11.673-11.674 6.435 0 11.671 5.238 11.671 11.674 0 6.435-5.236 11.672-11.671 11.672-6.438 0-11.673-5.237-11.673-11.672zm1.575-.002c.009 5.559 4.538 10.09 10.096 10.097 5.56-.008 10.088-4.538 10.1-10.094-.012-5.56-4.54-10.09-10.097-10.1h-.003c-5.558.01-10.087 4.54-10.096 10.097z"/></g></g></svg>