<svg xmlns="http://www.w3.org/2000/svg" width="48" height="49" viewBox="0 0 48 49"><g><g><path fill="#1f2021" d="M43.752 29.909c-1.017.207-2.35 1.75-2.581 2.25-.232.5.048 1.617.62 2.483l1.326 2.002c.573.865.442 2.174-.293 2.908l-3.772 3.772c-.733.734-2.044.866-2.908.293l-2.002-1.326c-.865-.573-2.894-.427-3.418-.235-.523.193-1.118 1.182-1.323 2.2l-.473 2.348c-.204 1.018-1.221 1.85-2.26 1.85h-5.336c-1.039 0-2.056-.832-2.261-1.85l-.479-2.376c-.204-1.018-1.736-2.354-2.232-2.586-.497-.232-1.611.049-2.476.624l-2.028 1.349c-.865.575-2.173.445-2.908-.29l-3.773-3.774c-.735-.734-.865-2.042-.29-2.907l1.372-2.062c.574-.865.45-2.858.264-3.367-.187-.507-1.173-1.091-2.191-1.297l-2.434-.489c-1.017-.205-1.85-1.223-1.85-2.26V21.83c0-1.038.833-2.055 1.85-2.26l2.463-.496c1.018-.204 2.337-1.693 2.56-2.175.223-.482-.064-1.584-.639-2.447l-1.395-2.098c-.575-.864-.445-2.173.29-2.907l3.773-3.774c.735-.734 2.043-.863 2.908-.289l2.097 1.395c.865.575 2.833.458 3.332.271.498-.185 1.076-1.17 1.283-2.187l.501-2.47c.207-1.016 1.226-1.849 2.264-1.849h5.334c1.038 0 2.057.833 2.264 1.85l.495 2.44c.207 1.018 1.707 2.333 2.192 2.556.485.223 1.59-.063 2.456-.637l2.07-1.37c.864-.574 2.175-.442 2.908.293l3.772 3.77c.735.734.866 2.044.293 2.91l-1.348 2.036c-.574.866-.435 2.87-.244 3.383.192.513 1.18 1.103 2.197 1.31l1.609.326 2.237.455c.212.043.387.928.387 1.966v5.334c0 1.038-.833 2.057-1.85 2.264zm-4.542 1.96l.294-.683c.064-.148.123-.3.183-.451l.27-.683c.226-.785.877-1.522 1.447-1.637l2.828-.576c.984-.2 1.79-1.213 1.79-2.251v-2.175c0-1.04-.809-2.053-1.798-2.254l-2.837-.577c-.572-.116-1.228-.854-1.46-1.64l-.275-.685c-.055-.137-.111-.275-.17-.411l-.296-.68c-.394-.71-.455-1.687-.134-2.172l1.604-2.422c.561-.848.42-2.14-.315-2.875L38.803 8.16c-.734-.736-2.033-.873-2.886-.308l-2.436 1.613c-.487.322-1.468.264-2.181-.13l-.686-.29c-.119-.051-.24-.096-.36-.145l-.685-.27c-.784-.227-1.522-.88-1.638-1.45l-.583-2.87c-.204-1.008-1.221-1.832-2.26-1.832h-2.176c-1.039 0-2.057.827-2.262 1.84l-.586 2.879c-.116.572-.854 1.23-1.64 1.462l-.684.276c-.113.046-.226.09-.338.138l-.683.294c-.709.392-1.687.45-2.171.129a3117.11 3117.11 0 0 1-2.45-1.63c-.862-.572-2.168-.44-2.902.294L7.66 9.696c-.734.734-.865 2.04-.292 2.902l1.628 2.45c.322.484.265 1.461-.13 2.172l-.292.682c-.051.117-.098.236-.146.354l-.274.684c-.231.785-.888 1.522-1.46 1.637l-2.877.579c-1.012.204-1.84 1.22-1.84 2.259v2.17c0 1.04.826 2.055 1.833 2.257l2.868.577c.57.115 1.22.85 1.445 1.634l.27.684c.054.131.104.263.158.394l.292.684c.393.711.45 1.69.127 2.177l-1.616 2.43c-.565.85-.428 2.148.306 2.882l1.536 1.536c.734.734 2.026.876 2.872.314l2.416-1.608c.483-.32 1.459-.261 2.167.133l.679.295c.147.065.296.125.445.185l.682.274c.785.23 1.521.886 1.636 1.456.116.571.372 1.848.57 2.836.2.988 1.212 1.797 2.25 1.797h2.173c1.039 0 2.05-.805 2.248-1.79l.569-2.825c.115-.57.85-1.22 1.633-1.444l.682-.27c.157-.062.314-.123.468-.19l.684-.293c.71-.394 1.69-.453 2.175-.131.486.32 1.567 1.037 2.403 1.59.836.554 2.121.406 2.855-.329l1.538-1.537c.735-.734.882-2.02.329-2.856l-1.592-2.402c-.321-.487-.262-1.465.132-2.175zm-7.36-7.329a7.811 7.811 0 1 1-15.622 0 7.811 7.811 0 0 1 15.623 0zm-1.931 0a5.886 5.886 0 0 0-5.878-5.878 5.885 5.885 0 0 0-5.878 5.878 5.885 5.885 0 0 0 5.878 5.878 5.886 5.886 0 0 0 5.878-5.878z"/></g></g></svg>