<svg xmlns="http://www.w3.org/2000/svg" width="43" height="42" viewBox="0 0 43 42"><g><g><path fill="#1f2021" d="M42.059 32.217c0 .528-.203 1.064-.607 1.47l-6.822 6.822a2.076 2.076 0 0 1-1.465.606h-.004a2.077 2.077 0 0 1-1.47-.606l-9.225-9.225 1.26-1.26 4.088 4.087 2.38-2.378 1.338 1.338-2.38 2.379 3.799 3.798a.286.286 0 0 0 .21.086c.08 0 .152-.028.21-.086l6.82-6.821a.293.293 0 0 0 .086-.21.287.287 0 0 0-.085-.21l-9.225-9.224 1.26-1.26 9.225 9.224c.404.405.607.941.607 1.47zM2.644 11.46a2.07 2.07 0 0 1-.607-1.469 2.072 2.072 0 0 1 .607-1.47L9.465 1.7a2.077 2.077 0 0 1 2.938-.002l7.965 7.964-1.26 1.26-7.963-7.963a.288.288 0 0 0-.21-.086.293.293 0 0 0-.21.086L3.903 9.78a.3.3 0 0 0 0 .42l3.799 3.8 2.38-2.38 1.338 1.338-2.379 2.38 2.825 2.825-1.26 1.26zm37.755-.209l-28.231 28.23a2.072 2.072 0 0 1-1.403.605 1.1 1.1 0 0 1-.287.275c-.298.204-.603.268-.913.29l-6.55.384h-.003c-.042.004-.08.004-.119.004h-.005c-.528 0-1.027-.211-1.38-.566a1.953 1.953 0 0 1-.565-1.484l.31-6.654c.018-.307.076-.612.276-.913.065-.106.16-.206.274-.292.014-.509.215-1.02.605-1.408l28.23-28.231a2.07 2.07 0 0 1 1.47-.608 2.071 2.071 0 0 1 1.47.607l6.82 6.821a2.081 2.081 0 0 1 0 2.94zM8.666 38.921L5.82 36.072l-2.825-2.825-.272 5.832v.007c.016.131.043.158.171.174l.02-.001zM39.225 9.782a.29.29 0 0 0-.085-.21l-6.822-6.821a.293.293 0 0 0-.21-.086.286.286 0 0 0-.21.086L3.668 30.982a.29.29 0 0 0-.086.21.294.294 0 0 0 .086.21l6.822 6.821a.29.29 0 0 0 .21.086c.08 0 .153-.029.21-.086l28.23-28.231a.289.289 0 0 0 .086-.21z"/></g></g></svg>